<svg width="526" height="422" viewBox="0 0 526 422" fill="none" xmlns="http://www.w3.org/2000/svg">
<g filter="url(#filter0_d)">
<path d="M453.713 320.706C453.713 320.706 476.717 213.25 464.6 169.791C464.6 169.791 456.3 135.74 445.033 123.438L445.949 120.016C427.892 98.7271 396.498 106.766 396.498 106.766L396.092 108.282L389.138 111.496L363.564 104.548C362.779 102.841 361.628 101.328 360.192 100.118C358.756 98.9067 357.071 98.0277 355.256 97.543L238.451 66.2453C236.745 65.786 234.961 65.6862 233.214 65.9521C231.466 66.2181 229.793 66.8441 228.301 67.7905L201.716 60.6672C201.716 60.6672 200.638 58.4251 197.011 55.4879L197.555 53.4592C179.497 32.1699 148.103 40.2087 148.103 40.2087L146.999 44.3274C146.237 44.5817 145.519 44.9561 144.874 45.4365C144.874 45.4365 118.388 54.4676 108.242 71.8675C108.242 71.8675 58.5095 147.187 40.5779 211.835C22.6462 276.483 45.2218 292.281 57.8342 297.488C70.4465 302.696 94.3602 306.678 132.481 255.366L151.13 224.421C151.13 224.421 158.167 204.982 175.281 222.972C192.395 240.962 215.759 226.507 215.759 226.507L292.503 247.07C292.503 247.07 313.798 269.812 340.484 263.534C340.484 263.534 352.779 254.034 350.491 296.68C350.491 296.68 354.403 386.678 397.044 388.965C439.685 391.251 453.713 320.706 453.713 320.706Z" fill="#B485FF"/>
<path d="M148.698 49.6268L150.34 43.4962C150.34 43.4962 181.124 35.6165 198.828 56.4884L197.334 62.0616L148.698 49.6268Z" fill="url(#paint0_linear)"/>
<path d="M392.249 114.886L393.892 108.756C393.892 108.756 424.676 100.876 442.379 121.748L440.886 127.321L392.249 114.886Z" fill="url(#paint1_linear)"/>
<path opacity="0.1" d="M148.698 49.6268L150.34 43.4962C150.34 43.4962 181.124 35.6165 198.828 56.4884L197.334 62.0616L148.698 49.6268Z" fill="#111418"/>
<path opacity="0.1" d="M392.249 114.886L393.892 108.756C393.892 108.756 424.676 100.876 442.379 121.748L440.886 127.321L392.249 114.886Z" fill="#111418"/>
<path d="M229.102 70.5738L202.908 63.5551C202.908 63.5551 198.31 53.9605 175.868 48.5444C153.426 43.1283 147.175 48.6215 147.175 48.6215C147.175 48.6215 121.203 57.492 111.259 74.5397C111.259 74.5397 62.5005 148.388 44.919 211.774C27.3375 275.16 49.4705 290.648 61.841 295.754C74.2115 300.861 97.6592 304.754 135.035 254.438L153.32 224.094C153.32 224.094 160.219 205.036 176.998 222.673C193.776 240.31 216.688 226.14 216.688 226.14L291.927 246.3C291.927 246.3 312.825 268.626 338.961 262.487C338.961 262.487 351.014 253.173 348.771 294.983C348.771 294.983 352.605 383.222 394.416 385.465C436.226 387.708 449.986 318.519 449.986 318.519C449.986 318.519 472.542 213.159 460.663 170.552C460.663 170.552 449.993 126.775 436.507 121.369C436.507 121.369 407.905 107.732 394.857 109.612L386.676 113.393L229.102 70.5738Z" fill="url(#paint2_linear)"/>
<path d="M140.726 157.402C167.505 164.577 195.031 148.685 202.206 121.906C209.381 95.1275 193.49 67.6022 166.711 60.4268C139.932 53.2514 112.407 69.1432 105.231 95.922C98.0559 122.701 113.948 150.226 140.726 157.402Z" fill="#B485FF"/>
<path d="M393.753 225.2C420.531 232.375 448.057 216.483 455.232 189.705C462.408 162.926 446.516 135.4 419.737 128.225C392.958 121.05 365.433 136.941 358.257 163.72C351.082 190.499 366.974 218.024 393.753 225.2Z" fill="#B485FF"/>
<path d="M165.065 100.366L157.068 104.352C156.391 104.687 155.615 104.764 154.886 104.569C154.156 104.373 153.523 103.919 153.105 103.29L148.161 95.8367C147.919 95.4728 147.757 95.0618 147.685 94.6307C147.613 94.1997 147.633 93.7583 147.744 93.3356L151.96 77.6023C152.174 76.8084 152.695 76.132 153.407 75.7215C154.12 75.311 154.966 75.2 155.76 75.4128L168.718 78.8849C169.112 78.9897 169.482 79.1713 169.806 79.4193C170.129 79.6673 170.401 79.9768 170.605 80.33C170.809 80.6832 170.941 81.0732 170.994 81.4776C171.047 81.8821 171.019 82.2929 170.913 82.6867L166.702 98.4033C166.584 98.8281 166.377 99.2229 166.095 99.5613C165.813 99.8998 165.462 100.174 165.065 100.366Z" fill="url(#paint3_linear)"/>
<path d="M159.272 121.985L154.338 114.54C153.919 113.911 153.286 113.456 152.557 113.261C151.827 113.066 151.052 113.143 150.375 113.478L142.367 117.461C141.975 117.655 141.629 117.93 141.352 118.267C141.074 118.605 140.871 118.997 140.755 119.418L136.544 135.135C136.438 135.529 136.41 135.94 136.463 136.344C136.516 136.749 136.648 137.139 136.852 137.492C137.056 137.845 137.328 138.154 137.651 138.402C137.975 138.65 138.345 138.832 138.739 138.937L151.697 142.409C152.09 142.515 152.5 142.543 152.904 142.49C153.308 142.437 153.698 142.306 154.051 142.102C154.404 141.899 154.713 141.628 154.962 141.305C155.21 140.982 155.392 140.613 155.497 140.22L159.708 124.503C159.819 124.076 159.837 123.631 159.762 123.197C159.687 122.762 159.52 122.349 159.272 121.985Z" fill="url(#paint4_linear)"/>
<path d="M140.645 114.479L148.099 109.535C148.727 109.117 149.182 108.483 149.377 107.754C149.573 107.025 149.496 106.249 149.16 105.572L145.177 97.564C144.983 97.1727 144.708 96.8269 144.371 96.5491C144.033 96.2714 143.641 96.068 143.22 95.9523L127.503 91.741C126.709 91.5297 125.863 91.6423 125.151 92.0541C124.439 92.4659 123.92 93.1433 123.707 93.9375L120.235 106.895C120.129 107.289 120.101 107.7 120.154 108.104C120.207 108.509 120.339 108.899 120.543 109.252C120.747 109.605 121.019 109.915 121.342 110.163C121.666 110.411 122.036 110.592 122.43 110.697L138.147 114.908C138.57 115.017 139.011 115.035 139.442 114.961C139.872 114.887 140.283 114.723 140.645 114.479Z" fill="url(#paint5_linear)"/>
<path d="M162.264 120.272L158.294 112.261C157.957 111.584 157.879 110.808 158.075 110.078C158.27 109.349 158.726 108.716 159.355 108.298L166.809 103.354C167.173 103.112 167.584 102.95 168.015 102.878C168.446 102.806 168.887 102.826 169.31 102.937L185.026 107.148C185.421 107.253 185.79 107.435 186.114 107.683C186.438 107.931 186.71 108.24 186.913 108.593C187.117 108.947 187.25 109.337 187.302 109.741C187.355 110.146 187.328 110.556 187.221 110.95L183.749 123.908C183.645 124.302 183.463 124.671 183.216 124.994C182.968 125.318 182.659 125.59 182.307 125.794C181.954 125.998 181.565 126.13 181.161 126.183C180.757 126.237 180.347 126.21 179.953 126.105L164.237 121.893C163.811 121.779 163.416 121.575 163.075 121.295C162.735 121.015 162.459 120.667 162.264 120.272Z" fill="url(#paint6_linear)"/>
<path d="M154.916 71.0053L171.636 75.4853L165.217 66.0001L154.916 71.0053Z" stroke="url(#paint7_linear)" stroke-width="2" stroke-miterlimit="10"/>
<path d="M135.801 142.343L152.521 146.823L142.22 151.828L135.801 142.343Z" stroke="url(#paint8_linear)" stroke-width="2" stroke-miterlimit="10"/>
<path d="M120.29 90.9969L115.81 107.717L110.804 97.4154L120.29 90.9969Z" stroke="url(#paint9_linear)" stroke-width="2" stroke-miterlimit="10"/>
<path d="M191.627 110.112L187.147 126.832L196.633 120.413L191.627 110.112Z" stroke="url(#paint10_linear)" stroke-width="2" stroke-miterlimit="10"/>
<path d="M195.888 214.593C215.28 219.789 235.212 208.281 240.408 188.89C245.604 169.498 234.096 149.566 214.704 144.37C195.313 139.174 175.381 150.682 170.185 170.074C164.989 189.465 176.497 209.397 195.888 214.593Z" fill="#B485FF"/>
<path d="M199.403 197.018C212.331 200.482 225.619 192.81 229.083 179.882C232.547 166.954 224.875 153.666 211.947 150.202C199.019 146.738 185.731 154.41 182.267 167.338C178.803 180.265 186.475 193.554 199.403 197.018Z" fill="url(#paint11_linear)"/>
<path d="M317.385 247.148C336.777 252.344 356.709 240.837 361.905 221.445C367.101 202.053 355.593 182.121 336.202 176.925C316.81 171.729 296.878 183.237 291.682 202.629C286.486 222.02 297.994 241.952 317.385 247.148Z" fill="#B485FF"/>
<path d="M320.9 229.573C333.828 233.037 347.116 225.365 350.58 212.437C354.044 199.509 346.372 186.221 333.444 182.757C320.516 179.293 307.228 186.965 303.764 199.893C300.3 212.821 307.972 226.109 320.9 229.573Z" fill="url(#paint12_linear)"/>
<path opacity="0.1" d="M201.494 189.215C210.112 191.524 218.971 186.41 221.28 177.791C223.589 169.173 218.475 160.314 209.856 158.005C201.238 155.695 192.379 160.81 190.07 169.428C187.761 178.047 192.875 186.906 201.494 189.215Z" stroke="#111418" stroke-width="2" stroke-miterlimit="10"/>
<path opacity="0.1" d="M322.991 221.77C331.609 224.079 340.468 218.965 342.777 210.346C345.087 201.728 339.972 192.869 331.353 190.56C322.735 188.25 313.876 193.365 311.567 201.984C309.258 210.602 314.372 219.461 322.991 221.77Z" stroke="#111418" stroke-width="2" stroke-miterlimit="10"/>
<path d="M263.426 209.991C268.967 211.476 274.661 208.188 276.146 202.647C277.631 197.107 274.343 191.412 268.802 189.927C263.262 188.443 257.567 191.731 256.082 197.271C254.598 202.812 257.886 208.507 263.426 209.991Z" fill="#B485FF"/>
<path d="M259.167 164.557C260.377 164.881 261.62 164.163 261.944 162.954C262.269 161.744 261.551 160.501 260.341 160.177C259.131 159.852 257.888 160.57 257.564 161.78C257.24 162.99 257.958 164.233 259.167 164.557Z" fill="#B485FF"/>
<path d="M267.371 166.755C268.581 167.08 269.824 166.362 270.148 165.152C270.472 163.942 269.754 162.699 268.545 162.375C267.335 162.051 266.092 162.769 265.768 163.978C265.443 165.188 266.161 166.431 267.371 166.755Z" fill="#B485FF"/>
<path d="M263.494 176.857C264.703 177.181 265.947 176.463 266.271 175.253C266.595 174.044 265.877 172.8 264.667 172.476C263.458 172.152 262.214 172.87 261.89 174.08C261.566 175.289 262.284 176.533 263.494 176.857Z" fill="#B485FF"/>
<path d="M271.082 179.189C272.313 179.519 273.579 178.788 273.909 177.557C274.239 176.326 273.508 175.06 272.277 174.73C271.046 174.4 269.78 175.131 269.45 176.362C269.12 177.593 269.851 178.859 271.082 179.189Z" fill="#B485FF"/>
<path d="M278.809 180.96C280.019 181.285 281.262 180.567 281.586 179.357C281.91 178.147 281.192 176.904 279.983 176.58C278.773 176.256 277.53 176.974 277.206 178.183C276.881 179.393 277.599 180.636 278.809 180.96Z" fill="#B485FF"/>
<path d="M261.53 171.056C262.739 171.38 263.983 170.662 264.307 169.453C264.631 168.243 263.913 167 262.703 166.675C261.494 166.351 260.25 167.069 259.926 168.279C259.602 169.489 260.32 170.732 261.53 171.056Z" fill="#B485FF"/>
<path d="M268.525 173.128C269.756 173.457 271.022 172.727 271.352 171.496C271.681 170.264 270.951 168.999 269.72 168.669C268.488 168.339 267.223 169.07 266.893 170.301C266.563 171.532 267.294 172.798 268.525 173.128Z" fill="#B485FF"/>
<path d="M275.77 175.069C277.001 175.399 278.267 174.668 278.597 173.437C278.927 172.206 278.196 170.94 276.965 170.61C275.734 170.28 274.468 171.011 274.138 172.242C273.808 173.473 274.539 174.739 275.77 175.069Z" fill="#B485FF"/>
<path d="M283.41 176.919C284.62 177.243 285.863 176.525 286.187 175.316C286.512 174.106 285.794 172.863 284.584 172.538C283.374 172.214 282.131 172.932 281.807 174.142C281.483 175.351 282.201 176.595 283.41 176.919Z" fill="#B485FF"/>
<path d="M273.92 168.6C275.151 168.93 276.416 168.199 276.746 166.968C277.076 165.736 276.345 164.471 275.114 164.141C273.883 163.811 272.617 164.542 272.288 165.773C271.958 167.004 272.688 168.27 273.92 168.6Z" fill="#B485FF"/>
<path d="M281.722 170.69C282.953 171.02 284.219 170.29 284.549 169.058C284.879 167.827 284.148 166.562 282.917 166.232C281.686 165.902 280.42 166.633 280.09 167.864C279.76 169.095 280.491 170.36 281.722 170.69Z" fill="#B485FF"/>
<path d="M288.159 172.326C289.369 172.65 290.613 171.932 290.937 170.722C291.261 169.513 290.543 168.269 289.333 167.945C288.124 167.621 286.88 168.339 286.556 169.548C286.232 170.758 286.95 172.001 288.159 172.326Z" fill="#B485FF"/>
<path d="M214.402 70.8163L211.615 70.0697C208.999 69.3686 206.31 70.9213 205.609 73.5376L202.473 85.2414C201.772 87.8578 203.324 90.547 205.941 91.2481L208.727 91.9947C211.344 92.6958 214.033 91.1431 214.734 88.5268L217.87 76.823C218.571 74.2066 217.018 71.5174 214.402 70.8163Z" fill="#B485FF"/>
<path d="M377.141 114.422L374.355 113.676C371.739 112.974 369.049 114.527 368.348 117.143L365.212 128.847C364.511 131.464 366.064 134.153 368.68 134.854L371.467 135.601C374.083 136.302 376.772 134.749 377.473 132.133L380.609 120.429C381.31 117.813 379.758 115.123 377.141 114.422Z" fill="#B485FF"/>
<path d="M411.633 160.699C419.02 162.679 426.613 158.295 428.593 150.907C430.572 143.52 426.188 135.927 418.801 133.948C411.414 131.968 403.82 136.352 401.841 143.739C399.862 151.127 404.246 158.72 411.633 160.699Z" fill="url(#paint13_linear)"/>
<path d="M375.593 181.507C382.98 183.486 390.574 179.102 392.553 171.715C394.532 164.328 390.148 156.735 382.761 154.755C375.374 152.776 367.781 157.16 365.801 164.547C363.822 171.934 368.206 179.527 375.593 181.507Z" fill="url(#paint14_linear)"/>
<path d="M434.003 195.366C441.39 197.345 448.984 192.961 450.963 185.574C452.942 178.187 448.558 170.593 441.171 168.614C433.784 166.635 426.191 171.019 424.211 178.406C422.232 185.793 426.616 193.386 434.003 195.366Z" fill="url(#paint15_linear)"/>
<path d="M398.779 217.587C406.167 219.566 413.76 215.182 415.739 207.795C417.719 200.407 413.335 192.814 405.947 190.835C398.56 188.855 390.967 193.239 388.987 200.627C387.008 208.014 391.392 215.607 398.779 217.587Z" fill="url(#paint16_linear)"/>
<path d="M353.456 99.7129L238.925 69.0245C232.23 67.2307 225.349 71.2036 223.555 77.8983L210.19 127.779C208.396 134.474 212.369 141.355 219.064 143.149L333.594 173.837C340.289 175.631 347.17 171.658 348.964 164.963L362.33 115.083C364.123 108.388 360.15 101.507 353.456 99.7129Z" fill="#B485FF"/>
<path d="M405.642 150.731L417.029 139.446L421.805 155.062L405.642 150.731Z" stroke="#B485FF" stroke-width="2" stroke-miterlimit="10"/>
<path d="M387.786 163.867L373.853 160.134L370.568 172.395L384.501 176.128L387.786 163.867Z" stroke="#B485FF" stroke-width="2" stroke-miterlimit="10"/>
<path d="M435.496 189.792C439.806 190.947 444.235 188.39 445.39 184.081C446.544 179.771 443.987 175.342 439.678 174.187C435.368 173.033 430.939 175.59 429.784 179.899C428.63 184.208 431.187 188.638 435.496 189.792Z" stroke="#B485FF" stroke-width="2" stroke-miterlimit="10"/>
<path d="M397.634 196.223L406.814 212.123" stroke="#B485FF" stroke-width="2" stroke-miterlimit="10"/>
<path d="M410.453 199.658L394.349 208.485" stroke="#B485FF" stroke-width="2" stroke-miterlimit="10"/>
</g>
<defs>
<filter id="filter0_d" x="0" y="0" width="525.347" height="421.215" filterUnits="userSpaceOnUse" color-interpolation-filters="sRGB">
<feFlood flood-opacity="0" result="BackgroundImageFix"/>
<feColorMatrix in="SourceAlpha" type="matrix" values="0 0 0 0 0 0 0 0 0 0 0 0 0 0 0 0 0 0 127 0"/>
<feOffset dy="2"/>
<feGaussianBlur stdDeviation="10"/>
<feColorMatrix type="matrix" values="0 0 0 0 0 0 0 0 0 0 0 0 0 0 0 0 0 0 0.1 0"/>
<feBlend mode="normal" in2="BackgroundImageFix" result="effect1_dropShadow"/>
<feBlend mode="normal" in="SourceGraphic" in2="effect1_dropShadow" result="shape"/>
</filter>
<linearGradient id="paint0_linear" x1="176.376" y1="43.3044" x2="172.941" y2="56.1229" gradientUnits="userSpaceOnUse">
<stop stop-color="#F5F5F5"/>
<stop offset="1" stop-color="#B485FF"/>
</linearGradient>
<linearGradient id="paint1_linear" x1="419.928" y1="108.564" x2="416.493" y2="121.382" gradientUnits="userSpaceOnUse">
<stop stop-color="#F5F5F5"/>
<stop offset="1" stop-color="#B485FF"/>
</linearGradient>
<linearGradient id="paint2_linear" x1="296.886" y1="80.9406" x2="227.127" y2="341.286" gradientUnits="userSpaceOnUse">
<stop stop-color="#F5F5F5"/>
<stop offset="1" stop-color="#B485FF"/>
</linearGradient>
<linearGradient id="paint3_linear" x1="162.239" y1="77.1488" x2="154.891" y2="104.57" gradientUnits="userSpaceOnUse">
<stop stop-color="#F5F5F5"/>
<stop offset="1" stop-color="#B485FF"/>
</linearGradient>
<linearGradient id="paint4_linear" x1="152.562" y1="113.263" x2="145.218" y2="140.673" gradientUnits="userSpaceOnUse">
<stop stop-color="#F5F5F5"/>
<stop offset="1" stop-color="#B485FF"/>
</linearGradient>
<linearGradient id="paint5_linear" x1="138.213" y1="94.6106" x2="133.134" y2="113.565" gradientUnits="userSpaceOnUse">
<stop stop-color="#F5F5F5"/>
<stop offset="1" stop-color="#B485FF"/>
</linearGradient>
<linearGradient id="paint6_linear" x1="174.319" y1="104.279" x2="169.24" y2="123.234" gradientUnits="userSpaceOnUse">
<stop stop-color="#F5F5F5"/>
<stop offset="1" stop-color="#B485FF"/>
</linearGradient>
<linearGradient id="paint7_linear" x1="165.217" y1="66.0001" x2="163.276" y2="73.2453" gradientUnits="userSpaceOnUse">
<stop stop-color="#F5F5F5"/>
<stop offset="1" stop-color="#B485FF"/>
</linearGradient>
<linearGradient id="paint8_linear" x1="144.161" y1="144.583" x2="142.22" y2="151.828" gradientUnits="userSpaceOnUse">
<stop stop-color="#F5F5F5"/>
<stop offset="1" stop-color="#B485FF"/>
</linearGradient>
<linearGradient id="paint9_linear" x1="116.667" y1="90.0262" x2="112.187" y2="106.746" gradientUnits="userSpaceOnUse">
<stop stop-color="#F5F5F5"/>
<stop offset="1" stop-color="#B485FF"/>
</linearGradient>
<linearGradient id="paint10_linear" x1="195.25" y1="111.082" x2="190.77" y2="127.802" gradientUnits="userSpaceOnUse">
<stop stop-color="#F5F5F5"/>
<stop offset="1" stop-color="#B485FF"/>
</linearGradient>
<linearGradient id="paint11_linear" x1="211.947" y1="150.202" x2="199.403" y2="197.018" gradientUnits="userSpaceOnUse">
<stop stop-color="#F5F5F5"/>
<stop offset="1" stop-color="#B485FF"/>
</linearGradient>
<linearGradient id="paint12_linear" x1="333.444" y1="182.757" x2="320.9" y2="229.573" gradientUnits="userSpaceOnUse">
<stop stop-color="#F5F5F5"/>
<stop offset="1" stop-color="#B485FF"/>
</linearGradient>
<linearGradient id="paint13_linear" x1="418.801" y1="133.948" x2="411.633" y2="160.699" gradientUnits="userSpaceOnUse">
<stop stop-color="#F5F5F5"/>
<stop offset="1" stop-color="#B485FF"/>
</linearGradient>
<linearGradient id="paint14_linear" x1="382.761" y1="154.755" x2="375.593" y2="181.507" gradientUnits="userSpaceOnUse">
<stop stop-color="#F5F5F5"/>
<stop offset="1" stop-color="#B485FF"/>
</linearGradient>
<linearGradient id="paint15_linear" x1="441.171" y1="168.614" x2="434.003" y2="195.366" gradientUnits="userSpaceOnUse">
<stop stop-color="#F5F5F5"/>
<stop offset="1" stop-color="#B485FF"/>
</linearGradient>
<linearGradient id="paint16_linear" x1="405.947" y1="190.835" x2="398.779" y2="217.587" gradientUnits="userSpaceOnUse">
<stop stop-color="#F5F5F5"/>
<stop offset="1" stop-color="#B485FF"/>
</linearGradient>
</defs>
</svg>
