<svg width="686" height="890" viewBox="0 0 686 890" fill="none" xmlns="http://www.w3.org/2000/svg">
<circle opacity="0.3" cx="481" cy="409" r="481" fill="#4D73BF"/>
<path fill-rule="evenodd" clip-rule="evenodd" d="M253.784 568.018L332.603 630.568L251.036 668.603L253.784 568.018Z" fill="#DD8945"/>
<circle cx="440.459" cy="255.459" r="113.804" transform="rotate(-120 440.459 255.459)" fill="#FFE682"/>
<path fill-rule="evenodd" clip-rule="evenodd" d="M483.568 406.799C499.585 434.541 535.058 444.045 562.799 428.029C590.541 412.012 600.045 376.54 584.029 348.798C568.012 321.057 532.54 311.552 504.798 327.568C477.057 343.585 467.552 379.058 483.568 406.799ZM565.074 431.969C535.156 449.241 496.902 438.991 479.629 409.074C462.356 379.156 472.607 340.901 502.524 323.629C532.441 306.356 570.696 316.606 587.969 346.524C605.241 376.441 594.991 414.696 565.074 431.969Z" fill="#37D2A9"/>
<rect x="461" y="664" width="4" height="20" rx="2" fill="#8099E6"/>
<rect x="461" y="716" width="4" height="20" rx="2" fill="#8099E6"/>
<rect x="499" y="698" width="4" height="20" rx="2" transform="rotate(90 499 698)" fill="#8099E6"/>
<rect x="447" y="698" width="4" height="20" rx="2" transform="rotate(90 447 698)" fill="#8099E6"/>
<rect x="196" y="258" width="4" height="20" rx="2" fill="#8099E6"/>
<rect x="196" y="310" width="4" height="20" rx="2" fill="#8099E6"/>
<rect x="234" y="292" width="4" height="20" rx="2" transform="rotate(90 234 292)" fill="#8099E6"/>
<rect x="182" y="292" width="4" height="20" rx="2" transform="rotate(90 182 292)" fill="#8099E6"/>
<g filter="url(#filter0_d)">
<path d="M574.713 616.706C574.713 616.706 597.717 509.25 585.6 465.791C585.6 465.791 577.3 431.74 566.033 419.438L566.949 416.016C548.892 394.727 517.498 402.766 517.498 402.766L517.092 404.282L510.138 407.496L484.564 400.548C483.779 398.841 482.628 397.328 481.192 396.118C479.756 394.907 478.071 394.028 476.256 393.543L359.451 362.245C357.745 361.786 355.961 361.686 354.214 361.952C352.466 362.218 350.793 362.844 349.301 363.79L322.716 356.667C322.716 356.667 321.638 354.425 318.011 351.488L318.555 349.459C300.497 328.17 269.103 336.209 269.103 336.209L267.999 340.327C267.237 340.582 266.519 340.956 265.874 341.437C265.874 341.437 239.388 350.468 229.242 367.867C229.242 367.867 179.51 443.187 161.578 507.835C143.646 572.483 166.222 588.281 178.834 593.488C191.447 598.696 215.36 602.678 253.481 551.366L272.13 520.421C272.13 520.421 279.167 500.982 296.281 518.972C313.395 536.962 336.759 522.507 336.759 522.507L413.503 543.07C413.503 543.07 434.798 565.812 461.484 559.534C461.484 559.534 473.779 550.034 471.491 592.68C471.491 592.68 475.403 682.678 518.044 684.965C560.685 687.251 574.713 616.706 574.713 616.706Z" fill="#B485FF"/>
<path d="M269.698 345.627L271.34 339.496C271.34 339.496 302.124 331.616 319.828 352.488L318.334 358.062L269.698 345.627Z" fill="url(#paint0_linear)"/>
<path d="M513.249 410.886L514.892 404.756C514.892 404.756 545.676 396.876 563.379 417.748L561.886 423.321L513.249 410.886Z" fill="url(#paint1_linear)"/>
<path opacity="0.1" d="M269.698 345.627L271.34 339.496C271.34 339.496 302.124 331.616 319.828 352.488L318.334 358.062L269.698 345.627Z" fill="#111418"/>
<path opacity="0.1" d="M513.249 410.886L514.892 404.756C514.892 404.756 545.676 396.876 563.379 417.748L561.886 423.321L513.249 410.886Z" fill="#111418"/>
<path d="M350.102 366.574L323.908 359.555C323.908 359.555 319.31 349.96 296.868 344.544C274.426 339.128 268.175 344.622 268.175 344.622C268.175 344.622 242.203 353.492 232.259 370.54C232.259 370.54 183.501 444.388 165.919 507.774C148.337 571.16 170.47 586.648 182.841 591.754C195.211 596.861 218.659 600.754 256.035 550.438L274.32 520.094C274.32 520.094 281.219 501.036 297.998 518.673C314.776 536.31 337.688 522.14 337.688 522.14L412.927 542.3C412.927 542.3 433.825 564.626 459.961 558.487C459.961 558.487 472.014 549.173 469.771 590.983C469.771 590.983 473.605 679.222 515.416 681.465C557.226 683.708 570.986 614.519 570.986 614.519C570.986 614.519 593.542 509.159 581.663 466.552C581.663 466.552 570.993 422.775 557.507 417.369C557.507 417.369 528.905 403.732 515.857 405.612L507.676 409.393L350.102 366.574Z" fill="url(#paint2_linear)"/>
<path d="M261.726 453.402C288.505 460.577 316.031 444.685 323.206 417.906C330.381 391.128 314.49 363.602 287.711 356.427C260.932 349.251 233.407 365.143 226.231 391.922C219.056 418.701 234.948 446.226 261.726 453.402Z" fill="#B485FF"/>
<path d="M514.753 521.2C541.531 528.375 569.057 512.483 576.232 485.705C583.408 458.926 567.516 431.4 540.737 424.225C513.958 417.05 486.433 432.941 479.257 459.72C472.082 486.499 487.974 514.024 514.753 521.2Z" fill="#B485FF"/>
<path d="M286.065 396.366L278.068 400.352C277.391 400.687 276.615 400.764 275.886 400.569C275.156 400.373 274.523 399.919 274.105 399.29L269.161 391.837C268.919 391.473 268.757 391.062 268.685 390.631C268.613 390.2 268.633 389.758 268.744 389.336L272.96 373.602C273.174 372.808 273.695 372.132 274.407 371.722C275.12 371.311 275.966 371.2 276.76 371.413L289.718 374.885C290.112 374.99 290.482 375.171 290.806 375.419C291.129 375.667 291.401 375.977 291.605 376.33C291.809 376.683 291.941 377.073 291.994 377.478C292.047 377.882 292.019 378.293 291.913 378.687L287.702 394.403C287.584 394.828 287.377 395.223 287.095 395.561C286.813 395.9 286.462 396.174 286.065 396.366Z" fill="url(#paint3_linear)"/>
<path d="M280.272 417.985L275.338 410.54C274.919 409.911 274.286 409.456 273.557 409.261C272.827 409.066 272.052 409.143 271.375 409.478L263.367 413.461C262.975 413.655 262.629 413.93 262.352 414.267C262.074 414.605 261.871 414.997 261.755 415.418L257.544 431.135C257.438 431.529 257.41 431.94 257.463 432.344C257.516 432.749 257.648 433.139 257.852 433.492C258.056 433.845 258.328 434.154 258.651 434.402C258.975 434.65 259.345 434.832 259.739 434.937L272.697 438.409C273.09 438.515 273.5 438.543 273.904 438.49C274.308 438.437 274.698 438.306 275.051 438.102C275.404 437.899 275.713 437.628 275.962 437.305C276.21 436.982 276.392 436.613 276.497 436.22L280.708 420.503C280.819 420.076 280.837 419.631 280.762 419.197C280.687 418.762 280.52 418.349 280.272 417.985Z" fill="url(#paint4_linear)"/>
<path d="M261.645 410.479L269.099 405.535C269.727 405.117 270.182 404.483 270.377 403.754C270.573 403.025 270.496 402.249 270.16 401.572L266.177 393.564C265.983 393.173 265.708 392.827 265.371 392.549C265.033 392.271 264.641 392.068 264.22 391.952L248.503 387.741C247.709 387.53 246.863 387.642 246.151 388.054C245.439 388.466 244.92 389.143 244.707 389.938L241.235 402.895C241.129 403.289 241.101 403.7 241.154 404.104C241.207 404.509 241.339 404.899 241.543 405.252C241.747 405.605 242.019 405.915 242.342 406.163C242.666 406.411 243.036 406.592 243.43 406.697L259.147 410.908C259.57 411.017 260.011 411.035 260.442 410.961C260.872 410.887 261.283 410.723 261.645 410.479Z" fill="url(#paint5_linear)"/>
<path d="M283.264 416.272L279.294 408.261C278.957 407.584 278.879 406.808 279.075 406.078C279.27 405.349 279.726 404.716 280.355 404.298L287.809 399.354C288.173 399.112 288.584 398.95 289.015 398.878C289.446 398.806 289.887 398.826 290.31 398.937L306.026 403.148C306.421 403.253 306.79 403.435 307.114 403.683C307.438 403.931 307.71 404.24 307.913 404.593C308.117 404.947 308.25 405.337 308.302 405.741C308.355 406.146 308.328 406.556 308.221 406.95L304.749 419.908C304.645 420.302 304.463 420.671 304.216 420.994C303.968 421.318 303.659 421.59 303.307 421.794C302.954 421.998 302.565 422.13 302.161 422.183C301.757 422.237 301.347 422.21 300.953 422.105L285.237 417.893C284.811 417.779 284.416 417.575 284.075 417.295C283.735 417.015 283.459 416.667 283.264 416.272Z" fill="url(#paint6_linear)"/>
<path d="M275.916 367.005L292.636 371.485L286.217 362L275.916 367.005Z" stroke="url(#paint7_linear)" stroke-width="2" stroke-miterlimit="10"/>
<path d="M256.801 438.343L273.521 442.823L263.22 447.828L256.801 438.343Z" stroke="url(#paint8_linear)" stroke-width="2" stroke-miterlimit="10"/>
<path d="M241.29 386.997L236.81 403.717L231.804 393.415L241.29 386.997Z" stroke="url(#paint9_linear)" stroke-width="2" stroke-miterlimit="10"/>
<path d="M312.627 406.112L308.147 422.832L317.633 416.413L312.627 406.112Z" stroke="url(#paint10_linear)" stroke-width="2" stroke-miterlimit="10"/>
<path d="M316.888 510.593C336.28 515.789 356.212 504.281 361.408 484.89C366.604 465.498 355.096 445.566 335.704 440.37C316.313 435.174 296.381 446.682 291.185 466.074C285.989 485.465 297.497 505.397 316.888 510.593Z" fill="#B485FF"/>
<path d="M320.403 493.018C333.331 496.482 346.619 488.81 350.083 475.882C353.547 462.954 345.875 449.666 332.947 446.202C320.019 442.738 306.731 450.41 303.267 463.338C299.803 476.265 307.475 489.554 320.403 493.018Z" fill="url(#paint11_linear)"/>
<path d="M438.385 543.148C457.777 548.344 477.709 536.837 482.905 517.445C488.101 498.053 476.593 478.121 457.202 472.925C437.81 467.729 417.878 479.237 412.682 498.629C407.486 518.02 418.994 537.952 438.385 543.148Z" fill="#B485FF"/>
<path d="M441.9 525.573C454.828 529.037 468.116 521.365 471.58 508.437C475.044 495.509 467.372 482.221 454.444 478.757C441.516 475.293 428.228 482.965 424.764 495.893C421.3 508.821 428.972 522.109 441.9 525.573Z" fill="url(#paint12_linear)"/>
<path opacity="0.1" d="M322.494 485.215C331.112 487.524 339.971 482.41 342.28 473.791C344.589 465.173 339.475 456.314 330.856 454.005C322.238 451.695 313.379 456.81 311.07 465.428C308.761 474.047 313.875 482.906 322.494 485.215Z" stroke="#111418" stroke-width="2" stroke-miterlimit="10"/>
<path opacity="0.1" d="M443.991 517.77C452.609 520.079 461.468 514.965 463.777 506.346C466.087 497.728 460.972 488.869 452.353 486.56C443.735 484.25 434.876 489.365 432.567 497.984C430.258 506.602 435.372 515.461 443.991 517.77Z" stroke="#111418" stroke-width="2" stroke-miterlimit="10"/>
<path d="M384.426 505.991C389.967 507.476 395.661 504.188 397.146 498.647C398.631 493.107 395.343 487.412 389.802 485.927C384.262 484.443 378.567 487.731 377.082 493.271C375.598 498.812 378.886 504.507 384.426 505.991Z" fill="#B485FF"/>
<path d="M380.167 460.557C381.377 460.881 382.62 460.163 382.944 458.954C383.269 457.744 382.551 456.501 381.341 456.177C380.131 455.852 378.888 456.57 378.564 457.78C378.24 458.99 378.958 460.233 380.167 460.557Z" fill="#B485FF"/>
<path d="M388.371 462.755C389.581 463.08 390.824 462.362 391.148 461.152C391.472 459.942 390.754 458.699 389.545 458.375C388.335 458.051 387.092 458.769 386.768 459.978C386.443 461.188 387.161 462.431 388.371 462.755Z" fill="#B485FF"/>
<path d="M384.494 472.857C385.703 473.181 386.947 472.463 387.271 471.253C387.595 470.044 386.877 468.8 385.667 468.476C384.458 468.152 383.214 468.87 382.89 470.08C382.566 471.289 383.284 472.533 384.494 472.857Z" fill="#B485FF"/>
<path d="M392.082 475.189C393.313 475.519 394.579 474.788 394.909 473.557C395.239 472.326 394.508 471.06 393.277 470.73C392.046 470.4 390.78 471.131 390.45 472.362C390.12 473.593 390.851 474.859 392.082 475.189Z" fill="#B485FF"/>
<path d="M399.809 476.96C401.019 477.285 402.262 476.567 402.586 475.357C402.91 474.147 402.192 472.904 400.983 472.58C399.773 472.256 398.53 472.974 398.206 474.183C397.881 475.393 398.599 476.636 399.809 476.96Z" fill="#B485FF"/>
<path d="M382.53 467.056C383.739 467.38 384.983 466.662 385.307 465.453C385.631 464.243 384.913 463 383.703 462.675C382.494 462.351 381.25 463.069 380.926 464.279C380.602 465.489 381.32 466.732 382.53 467.056Z" fill="#B485FF"/>
<path d="M389.525 469.128C390.756 469.457 392.022 468.727 392.352 467.496C392.681 466.264 391.951 464.999 390.72 464.669C389.488 464.339 388.223 465.07 387.893 466.301C387.563 467.532 388.294 468.798 389.525 469.128Z" fill="#B485FF"/>
<path d="M396.77 471.069C398.001 471.399 399.267 470.668 399.597 469.437C399.927 468.206 399.196 466.94 397.965 466.61C396.734 466.28 395.468 467.011 395.138 468.242C394.808 469.473 395.539 470.739 396.77 471.069Z" fill="#B485FF"/>
<path d="M404.41 472.919C405.62 473.243 406.863 472.525 407.187 471.316C407.512 470.106 406.794 468.863 405.584 468.538C404.374 468.214 403.131 468.932 402.807 470.142C402.483 471.351 403.201 472.595 404.41 472.919Z" fill="#B485FF"/>
<path d="M394.92 464.6C396.151 464.93 397.416 464.199 397.746 462.968C398.076 461.736 397.345 460.471 396.114 460.141C394.883 459.811 393.617 460.542 393.288 461.773C392.958 463.004 393.688 464.27 394.92 464.6Z" fill="#B485FF"/>
<path d="M402.722 466.69C403.953 467.02 405.219 466.29 405.549 465.058C405.879 463.827 405.148 462.562 403.917 462.232C402.686 461.902 401.42 462.633 401.09 463.864C400.76 465.095 401.491 466.36 402.722 466.69Z" fill="#B485FF"/>
<path d="M409.159 468.326C410.369 468.65 411.613 467.932 411.937 466.722C412.261 465.513 411.543 464.269 410.333 463.945C409.124 463.621 407.88 464.339 407.556 465.548C407.232 466.758 407.95 468.001 409.159 468.326Z" fill="#B485FF"/>
<path d="M335.402 366.816L332.615 366.07C329.999 365.369 327.31 366.921 326.609 369.538L323.473 381.241C322.772 383.858 324.324 386.547 326.941 387.248L329.727 387.995C332.344 388.696 335.033 387.143 335.734 384.527L338.87 372.823C339.571 370.207 338.018 367.517 335.402 366.816Z" fill="#B485FF"/>
<path d="M498.141 410.422L495.355 409.676C492.739 408.974 490.049 410.527 489.348 413.143L486.212 424.847C485.511 427.464 487.064 430.153 489.68 430.854L492.467 431.601C495.083 432.302 497.772 430.749 498.473 428.133L501.609 416.429C502.31 413.813 500.758 411.123 498.141 410.422Z" fill="#B485FF"/>
<path d="M532.633 456.699C540.02 458.679 547.613 454.295 549.593 446.907C551.572 439.52 547.188 431.927 539.801 429.948C532.414 427.968 524.82 432.352 522.841 439.739C520.862 447.127 525.246 454.72 532.633 456.699Z" fill="url(#paint13_linear)"/>
<path d="M496.593 477.507C503.98 479.486 511.574 475.102 513.553 467.715C515.532 460.328 511.148 452.735 503.761 450.755C496.374 448.776 488.781 453.16 486.801 460.547C484.822 467.934 489.206 475.527 496.593 477.507Z" fill="url(#paint14_linear)"/>
<path d="M555.003 491.366C562.39 493.345 569.984 488.961 571.963 481.574C573.942 474.187 569.558 466.593 562.171 464.614C554.784 462.635 547.191 467.019 545.211 474.406C543.232 481.793 547.616 489.386 555.003 491.366Z" fill="url(#paint15_linear)"/>
<path d="M519.779 513.587C527.167 515.566 534.76 511.182 536.739 503.795C538.719 496.407 534.335 488.814 526.947 486.835C519.56 484.855 511.967 489.239 509.987 496.627C508.008 504.014 512.392 511.607 519.779 513.587Z" fill="url(#paint16_linear)"/>
<path d="M474.456 395.713L359.925 365.024C353.23 363.231 346.349 367.204 344.555 373.898L331.19 423.779C329.396 430.474 333.369 437.355 340.064 439.149L454.594 469.837C461.289 471.631 468.17 467.658 469.964 460.963L483.33 411.083C485.123 404.388 481.15 397.507 474.456 395.713Z" fill="#B485FF"/>
<path d="M526.642 446.731L538.029 435.446L542.805 451.062L526.642 446.731Z" stroke="#B485FF" stroke-width="2" stroke-miterlimit="10"/>
<path d="M508.786 459.867L494.853 456.134L491.568 468.395L505.501 472.128L508.786 459.867Z" stroke="#B485FF" stroke-width="2" stroke-miterlimit="10"/>
<path d="M556.496 485.792C560.806 486.947 565.235 484.39 566.39 480.081C567.544 475.771 564.987 471.342 560.678 470.187C556.368 469.033 551.939 471.59 550.784 475.899C549.63 480.208 552.187 484.638 556.496 485.792Z" stroke="#B485FF" stroke-width="2" stroke-miterlimit="10"/>
<path d="M518.634 492.223L527.814 508.123" stroke="#B485FF" stroke-width="2" stroke-miterlimit="10"/>
<path d="M531.453 495.658L515.349 504.485" stroke="#B485FF" stroke-width="2" stroke-miterlimit="10"/>
</g>
<defs>
<filter id="filter0_d" x="121" y="296" width="525.347" height="421.215" filterUnits="userSpaceOnUse" color-interpolation-filters="sRGB">
<feFlood flood-opacity="0" result="BackgroundImageFix"/>
<feColorMatrix in="SourceAlpha" type="matrix" values="0 0 0 0 0 0 0 0 0 0 0 0 0 0 0 0 0 0 127 0"/>
<feOffset dy="2"/>
<feGaussianBlur stdDeviation="10"/>
<feColorMatrix type="matrix" values="0 0 0 0 0 0 0 0 0 0 0 0 0 0 0 0 0 0 0.1 0"/>
<feBlend mode="normal" in2="BackgroundImageFix" result="effect1_dropShadow"/>
<feBlend mode="normal" in="SourceGraphic" in2="effect1_dropShadow" result="shape"/>
</filter>
<linearGradient id="paint0_linear" x1="297.376" y1="339.304" x2="293.941" y2="352.123" gradientUnits="userSpaceOnUse">
<stop stop-color="#F5F5F5"/>
<stop offset="1" stop-color="#B485FF"/>
</linearGradient>
<linearGradient id="paint1_linear" x1="540.928" y1="404.564" x2="537.493" y2="417.382" gradientUnits="userSpaceOnUse">
<stop stop-color="#F5F5F5"/>
<stop offset="1" stop-color="#B485FF"/>
</linearGradient>
<linearGradient id="paint2_linear" x1="417.886" y1="376.941" x2="348.127" y2="637.286" gradientUnits="userSpaceOnUse">
<stop stop-color="#F5F5F5"/>
<stop offset="1" stop-color="#B485FF"/>
</linearGradient>
<linearGradient id="paint3_linear" x1="283.239" y1="373.149" x2="275.891" y2="400.57" gradientUnits="userSpaceOnUse">
<stop stop-color="#F5F5F5"/>
<stop offset="1" stop-color="#B485FF"/>
</linearGradient>
<linearGradient id="paint4_linear" x1="273.562" y1="409.263" x2="266.218" y2="436.673" gradientUnits="userSpaceOnUse">
<stop stop-color="#F5F5F5"/>
<stop offset="1" stop-color="#B485FF"/>
</linearGradient>
<linearGradient id="paint5_linear" x1="259.213" y1="390.611" x2="254.134" y2="409.565" gradientUnits="userSpaceOnUse">
<stop stop-color="#F5F5F5"/>
<stop offset="1" stop-color="#B485FF"/>
</linearGradient>
<linearGradient id="paint6_linear" x1="295.319" y1="400.279" x2="290.24" y2="419.234" gradientUnits="userSpaceOnUse">
<stop stop-color="#F5F5F5"/>
<stop offset="1" stop-color="#B485FF"/>
</linearGradient>
<linearGradient id="paint7_linear" x1="286.217" y1="362" x2="284.276" y2="369.245" gradientUnits="userSpaceOnUse">
<stop stop-color="#F5F5F5"/>
<stop offset="1" stop-color="#B485FF"/>
</linearGradient>
<linearGradient id="paint8_linear" x1="265.161" y1="440.583" x2="263.22" y2="447.828" gradientUnits="userSpaceOnUse">
<stop stop-color="#F5F5F5"/>
<stop offset="1" stop-color="#B485FF"/>
</linearGradient>
<linearGradient id="paint9_linear" x1="237.667" y1="386.026" x2="233.187" y2="402.746" gradientUnits="userSpaceOnUse">
<stop stop-color="#F5F5F5"/>
<stop offset="1" stop-color="#B485FF"/>
</linearGradient>
<linearGradient id="paint10_linear" x1="316.25" y1="407.082" x2="311.77" y2="423.802" gradientUnits="userSpaceOnUse">
<stop stop-color="#F5F5F5"/>
<stop offset="1" stop-color="#B485FF"/>
</linearGradient>
<linearGradient id="paint11_linear" x1="332.947" y1="446.202" x2="320.403" y2="493.018" gradientUnits="userSpaceOnUse">
<stop stop-color="#F5F5F5"/>
<stop offset="1" stop-color="#B485FF"/>
</linearGradient>
<linearGradient id="paint12_linear" x1="454.444" y1="478.757" x2="441.9" y2="525.573" gradientUnits="userSpaceOnUse">
<stop stop-color="#F5F5F5"/>
<stop offset="1" stop-color="#B485FF"/>
</linearGradient>
<linearGradient id="paint13_linear" x1="539.801" y1="429.948" x2="532.633" y2="456.699" gradientUnits="userSpaceOnUse">
<stop stop-color="#F5F5F5"/>
<stop offset="1" stop-color="#B485FF"/>
</linearGradient>
<linearGradient id="paint14_linear" x1="503.761" y1="450.755" x2="496.593" y2="477.507" gradientUnits="userSpaceOnUse">
<stop stop-color="#F5F5F5"/>
<stop offset="1" stop-color="#B485FF"/>
</linearGradient>
<linearGradient id="paint15_linear" x1="562.171" y1="464.614" x2="555.003" y2="491.366" gradientUnits="userSpaceOnUse">
<stop stop-color="#F5F5F5"/>
<stop offset="1" stop-color="#B485FF"/>
</linearGradient>
<linearGradient id="paint16_linear" x1="526.947" y1="486.835" x2="519.779" y2="513.587" gradientUnits="userSpaceOnUse">
<stop stop-color="#F5F5F5"/>
<stop offset="1" stop-color="#B485FF"/>
</linearGradient>
</defs>
</svg>
