<svg width="92" height="92" viewBox="0 0 92 92" fill="none" xmlns="http://www.w3.org/2000/svg">
<path d="M46 0L53.3588 9.00478L63.6034 3.50154L66.9561 14.637L78.5269 13.4731L77.363 25.0439L88.4985 28.3966L82.9952 38.6412L92 46L82.9952 53.3588L88.4985 63.6034L77.363 66.9561L78.5269 78.5269L66.9561 77.363L63.6034 88.4985L53.3588 82.9952L46 92L38.6412 82.9952L28.3966 88.4985L25.0439 77.363L13.4731 78.5269L14.637 66.9561L3.50154 63.6034L9.00478 53.3588L0 46L9.00478 38.6412L3.50154 28.3966L14.637 25.0439L13.4731 13.4731L25.0439 14.637L28.3966 3.50154L38.6412 9.00478L46 0Z" fill="#FFE682"/>
<path d="M48.8125 63.4922C50.8984 63.4922 52.3047 62.0859 52.3047 59.9531V32.625C52.3047 30.1875 50.8047 28.6641 48.2969 28.6641C46.8438 28.6641 45.7188 28.875 44.0781 30L37.375 34.6406C36.2734 35.4141 35.8516 36.2109 35.8516 37.2891C35.8516 38.7891 36.9062 39.8203 38.3359 39.8203C39.0625 39.8203 39.5547 39.6562 40.2109 39.1875L45.1562 35.7422H45.2969V59.9531C45.2969 62.0859 46.7266 63.4922 48.8125 63.4922Z" fill="#111418"/>
</svg>
