<svg width="60" height="60" viewBox="0 0 60 60" fill="none" xmlns="http://www.w3.org/2000/svg">
<path d="M30 3.03898e-07L34.7992 5.87268L41.4805 2.28361L43.667 9.54585L51.2132 8.7868L50.4542 16.333L57.7164 18.5195L54.1273 25.2008L60 30L54.1273 34.7992L57.7164 41.4805L50.4542 43.667L51.2132 51.2132L43.667 50.4542L41.4805 57.7164L34.7992 54.1273L30 60L25.2008 54.1273L18.5195 57.7164L16.333 50.4542L8.7868 51.2132L9.54585 43.667L2.28361 41.4805L5.87268 34.7992L-3.03898e-07 30L5.87268 25.2008L2.28361 18.5195L9.54585 16.333L8.7868 8.7868L16.333 9.54585L18.5195 2.28361L25.2008 5.87268L30 3.03898e-07Z" fill="#FFE682"/>
<path d="M24.3443 41.4589L36.5573 41.4589C37.7496 41.4589 38.468 40.7099 38.468 39.6247C38.468 38.5088 37.7496 37.7904 36.5573 37.7904L28.2421 37.7904L28.2421 37.6987L33.0111 33.1131C36.6185 29.7045 37.933 28.0231 37.933 25.3329C37.933 21.5421 34.7842 18.913 30.1069 18.913C25.934 18.913 23.1674 21.1906 22.4184 23.6362C22.3114 23.9572 22.2503 24.2782 22.2503 24.6298C22.2503 25.7762 22.984 26.5098 24.2221 26.5098C25.2156 26.5098 25.7506 26.0819 26.2703 25.1647C27.0651 23.3916 28.288 22.5051 30.0611 22.5051C32.0329 22.5051 33.4391 23.8043 33.4391 25.6233C33.4391 27.213 32.736 28.2829 30.0152 30.8967L23.4425 37.179C22.5101 38.035 22.1738 38.6158 22.1738 39.4871C22.1738 40.6488 22.8922 41.4589 24.3443 41.4589Z" fill="#111418"/>
</svg>
