<svg width="24" height="24" viewBox="0 0 24 24" fill="none" xmlns="http://www.w3.org/2000/svg">
<path d="M17.2788 21.5124C17.4332 21.6689 17.5198 21.88 17.5198 22.0998C17.5198 22.3197 17.4332 22.5307 17.2788 22.6872C17.2029 22.7643 17.1124 22.8256 17.0125 22.8674C16.9127 22.9091 16.8056 22.9307 16.6974 22.9307C16.5892 22.9307 16.4821 22.9091 16.3822 22.8674C16.2824 22.8256 16.1919 22.7643 16.116 22.6872L6.71999 13.1976C6.56559 13.0411 6.47901 12.8301 6.47901 12.6102C6.47901 12.3904 6.56559 12.1793 6.71999 12.0228L16.116 2.53323C16.1919 2.45613 16.2824 2.3949 16.3822 2.35311C16.4821 2.31132 16.5892 2.28979 16.6974 2.28979C16.8056 2.28979 16.9127 2.31132 17.0125 2.35311C17.1124 2.3949 17.2029 2.45613 17.2788 2.53323C17.4332 2.68975 17.5198 2.90077 17.5198 3.12063C17.5198 3.34049 17.4332 3.55151 17.2788 3.70803L8.70959 12.6108L17.2788 21.5124Z" fill="#37414E"/>
</svg>
