<svg width="92" height="92" viewBox="0 0 92 92" fill="none" xmlns="http://www.w3.org/2000/svg">
<path d="M46 0L53.3588 9.00478L63.6034 3.50154L66.9561 14.637L78.5269 13.4731L77.363 25.0439L88.4985 28.3966L82.9952 38.6412L92 46L82.9952 53.3588L88.4985 63.6034L77.363 66.9561L78.5269 78.5269L66.9561 77.363L63.6034 88.4985L53.3588 82.9952L46 92L38.6412 82.9952L28.3966 88.4985L25.0439 77.363L13.4731 78.5269L14.637 66.9561L3.50154 63.6034L9.00478 53.3588L0 46L9.00478 38.6412L3.50154 28.3966L14.637 25.0439L13.4731 13.4731L25.0439 14.637L28.3966 3.50154L38.6412 9.00478L46 0Z" fill="#FFE682"/>
</svg>
