<svg width="20" height="16" viewBox="0 0 20 16" fill="none" xmlns="http://www.w3.org/2000/svg">
<path d="M19.7025 2.11415C19.0067 2.42248 18.2592 2.63082 17.4733 2.72498C18.2842 2.23981 18.8908 1.4762 19.18 0.576649C18.4182 1.02914 17.5845 1.34765 16.715 1.51832C16.1303 0.894037 15.3559 0.480255 14.5119 0.341211C13.668 0.202168 12.8018 0.345642 12.0477 0.74936C11.2937 1.15308 10.694 1.79445 10.3418 2.5739C9.98961 3.35335 9.90462 4.22727 10.1 5.05998C8.55641 4.98248 7.04636 4.58127 5.66786 3.8824C4.28936 3.18353 3.07321 2.20262 2.09834 1.00332C1.765 1.57832 1.57334 2.24498 1.57334 2.95498C1.57297 3.59415 1.73037 4.22352 2.03157 4.78726C2.33277 5.351 2.76847 5.83168 3.3 6.18665C2.68357 6.16704 2.08073 6.00047 1.54167 5.70082V5.75082C1.54161 6.64727 1.8517 7.51613 2.41932 8.20998C2.98695 8.90383 3.77715 9.37992 4.65584 9.55748C4.08399 9.71225 3.48445 9.73504 2.9025 9.62415C3.15042 10.3955 3.63333 11.07 4.28364 11.5533C4.93395 12.0365 5.7191 12.3043 6.52917 12.3192C5.15403 13.3987 3.45574 13.9842 1.7075 13.9816C1.39782 13.9817 1.0884 13.9636 0.780838 13.9275C2.5554 15.0685 4.62112 15.674 6.73084 15.6716C13.8725 15.6716 17.7767 9.75665 17.7767 4.62665C17.7767 4.45998 17.7725 4.29165 17.765 4.12498C18.5244 3.57579 19.1799 2.89573 19.7008 2.11665L19.7025 2.11415Z" fill="white"/>
</svg>
